<svg width="160" height="65" viewBox="0 0 160 65" fill="none" xmlns="http://www.w3.org/2000/svg">
<path fill-rule="evenodd" clip-rule="evenodd" d="M23.4352 25.4486L20.9396 21.4743L23.4352 17.5H28.3862L30.8818 21.4743L28.3862 25.4486H23.4352Z" fill="#76C33A" fill-opacity="0.99"/>
<path fill-rule="evenodd" clip-rule="evenodd" d="M20.4163 29.7201H15.4654L12.9698 25.7458L15.4654 21.7715H20.4163L22.9119 25.7458L20.4163 29.7201Z" fill="#76C33A" fill-opacity="0.99"/>
<path fill-rule="evenodd" clip-rule="evenodd" d="M7.45535 33.9543L5 29.98L7.45535 26.0057H12.4465L14.9421 29.98L12.4465 33.9543H7.45535Z" fill="#76C33A" fill-opacity="0.99"/>
<path fill-rule="evenodd" clip-rule="evenodd" d="M7.45535 42.46L5 38.4858L7.45535 34.5115H12.4465L14.9421 38.4858L12.4465 42.46H7.45535Z" fill="#76C33A" fill-opacity="0.99"/>
<path fill-rule="evenodd" clip-rule="evenodd" d="M5 46.9543L7.45535 42.98H12.4465L14.9421 46.9543L12.4465 50.9285H7.45535L5 46.9543Z" fill="#76C33A" fill-opacity="0.99"/>
<path fill-rule="evenodd" clip-rule="evenodd" d="M20.4163 46.6943H15.4654L12.9698 42.72L15.4654 38.7457H20.4163L22.9119 42.72L20.4163 46.6943Z" fill="#76C33A" fill-opacity="0.99"/>
<path fill-rule="evenodd" clip-rule="evenodd" d="M20.4163 38.1886H15.4654L12.9698 34.2143L15.4654 30.24H20.4163L22.9119 34.2143L20.4163 38.1886Z" fill="#76C33A" fill-opacity="0.99"/>
<path fill-rule="evenodd" clip-rule="evenodd" d="M20.9396 29.98L23.4352 26.0057H28.3862L30.8818 29.98L28.3862 33.9543H23.4352L20.9396 29.98Z" fill="#76C33A" fill-opacity="0.99"/>
<path fill-rule="evenodd" clip-rule="evenodd" d="M20.9396 38.4858L23.4352 34.5115H28.3862L30.8818 38.4858L28.3862 42.46H23.4352L20.9396 38.4858Z" fill="#76C33A" fill-opacity="0.99"/>
<path fill-rule="evenodd" clip-rule="evenodd" d="M23.4352 25.4486L20.9396 21.4743L23.4352 17.5H28.3862L30.8818 21.4743L28.3862 25.4486H23.4352Z" fill="#76C33A" fill-opacity="0.99"/>
<path fill-rule="evenodd" clip-rule="evenodd" d="M20.4163 29.7201H15.4654L12.9698 25.7458L15.4654 21.7715H20.4163L22.9119 25.7458L20.4163 29.7201Z" fill="#76C33A" fill-opacity="0.99"/>
<path fill-rule="evenodd" clip-rule="evenodd" d="M7.45535 33.9543L5 29.98L7.45535 26.0057H12.4465L14.9421 29.98L12.4465 33.9543H7.45535Z" fill="#76C33A" fill-opacity="0.99"/>
<path fill-rule="evenodd" clip-rule="evenodd" d="M7.45535 42.46L5 38.4858L7.45535 34.5115H12.4465L14.9421 38.4858L12.4465 42.46H7.45535Z" fill="#76C33A" fill-opacity="0.99"/>
<path fill-rule="evenodd" clip-rule="evenodd" d="M5 46.9543L7.45535 42.98H12.4465L14.9421 46.9543L12.4465 50.9285H7.45535L5 46.9543Z" fill="#76C33A" fill-opacity="0.99"/>
<path fill-rule="evenodd" clip-rule="evenodd" d="M20.4163 46.6943H15.4654L12.9698 42.72L15.4654 38.7457H20.4163L22.9119 42.72L20.4163 46.6943Z" fill="#76C33A" fill-opacity="0.99"/>
<path fill-rule="evenodd" clip-rule="evenodd" d="M20.4163 38.1886H15.4654L12.9698 34.2143L15.4654 30.24H20.4163L22.9119 34.2143L20.4163 38.1886Z" fill="#76C33A" fill-opacity="0.99"/>
<path fill-rule="evenodd" clip-rule="evenodd" d="M20.9396 29.98L23.4352 26.0057H28.3862L30.8818 29.98L28.3862 33.9543H23.4352L20.9396 29.98Z" fill="#76C33A" fill-opacity="0.99"/>
<path fill-rule="evenodd" clip-rule="evenodd" d="M20.9396 38.4858L23.4352 34.5115H28.3862L30.8818 38.4858L28.3862 42.46H23.4352L20.9396 38.4858Z" fill="#76C33A" fill-opacity="0.99"/>
<path d="M45.9887 44.48C43.7887 44.48 41.9087 44.06 40.3487 43.22C38.8087 42.36 37.6387 41.18 36.8387 39.68C36.0387 38.16 35.6387 36.42 35.6387 34.46C35.6387 32.46 36.0087 30.69 36.7487 29.15C37.4887 27.59 38.6187 26.37 40.1387 25.49C41.6787 24.59 43.5687 24.14 45.8087 24.14C47.4887 24.14 48.8987 24.29 50.0387 24.59C51.1787 24.89 52.2187 25.38 53.1587 26.06V30.2H47.6087V27.98C47.1087 27.76 46.5087 27.65 45.8087 27.65C44.3287 27.65 43.1787 28.25 42.3587 29.45C41.5387 30.65 41.1287 32.32 41.1287 34.46C41.1287 36.56 41.5587 38.17 42.4187 39.29C43.2987 40.41 44.5787 40.97 46.2587 40.97C47.0187 40.97 47.7287 40.89 48.3887 40.73V36.56H44.9087V33.08H53.9387V42.17C51.8187 43.71 49.1687 44.48 45.9887 44.48ZM54.8281 40.46H55.1581C55.9781 40.46 56.3881 40.08 56.3881 39.32V34.28C56.3881 33.92 56.2981 33.64 56.1181 33.44C55.9581 33.24 55.6681 33.14 55.2481 33.14H54.8881V29.6H61.0681L61.3981 31.04C61.7381 30.54 62.2281 30.18 62.8681 29.96C63.5281 29.72 64.1681 29.6 64.7881 29.6H66.7381V33.14H63.9181C63.2381 33.14 62.7481 33.3 62.4481 33.62C62.1681 33.94 62.0281 34.44 62.0281 35.12V39.32C62.0281 39.7 62.1081 39.99 62.2681 40.19C62.4481 40.37 62.7381 40.46 63.1381 40.46H63.4381V44H54.8281V40.46ZM74.3002 44.48C71.6802 44.48 69.6402 43.84 68.1802 42.56C66.7202 41.28 65.9902 39.39 65.9902 36.89C65.9902 34.27 66.6702 32.33 68.0302 31.07C69.3902 29.79 71.3402 29.15 73.8802 29.15C76.3602 29.15 78.2402 29.82 79.5202 31.16C80.8202 32.48 81.4702 34.25 81.4702 36.47V37.91H71.5402C71.5402 39.11 71.7502 39.96 72.1702 40.46C72.5902 40.96 73.3302 41.21 74.3902 41.21C75.1302 41.21 75.7902 41.08 76.3702 40.82V39.62H80.9602V42.29C80.1802 43.01 79.2602 43.56 78.2002 43.94C77.1402 44.3 75.8402 44.48 74.3002 44.48ZM75.9502 35.03C75.9502 34.21 75.7502 33.58 75.3502 33.14C74.9702 32.68 74.4402 32.45 73.7602 32.45C73.0402 32.45 72.4902 32.68 72.1102 33.14C71.7302 33.58 71.5402 34.21 71.5402 35.03H75.9502ZM89.6225 44.48C87.0025 44.48 84.9625 43.84 83.5025 42.56C82.0425 41.28 81.3125 39.39 81.3125 36.89C81.3125 34.27 81.9925 32.33 83.3525 31.07C84.7125 29.79 86.6625 29.15 89.2025 29.15C91.6825 29.15 93.5625 29.82 94.8425 31.16C96.1425 32.48 96.7925 34.25 96.7925 36.47V37.91H86.8625C86.8625 39.11 87.0725 39.96 87.4925 40.46C87.9125 40.96 88.6525 41.21 89.7125 41.21C90.4525 41.21 91.1125 41.08 91.6925 40.82V39.62H96.2825V42.29C95.5025 43.01 94.5825 43.56 93.5225 43.94C92.4625 44.3 91.1625 44.48 89.6225 44.48ZM91.2725 35.03C91.2725 34.21 91.0725 33.58 90.6725 33.14C90.2925 32.68 89.7625 32.45 89.0825 32.45C88.3625 32.45 87.8125 32.68 87.4325 33.14C87.0525 33.58 86.8625 34.21 86.8625 35.03H91.2725ZM97.6895 40.46H97.9895C98.8295 40.46 99.2495 40.08 99.2495 39.32V34.34C99.2495 33.58 98.8595 33.2 98.0795 33.2H97.6895V29.6H102.729L102.939 31.52C104.239 29.94 106.079 29.15 108.459 29.15C110.259 29.15 111.579 29.59 112.419 30.47C113.259 31.33 113.679 32.59 113.679 34.25V39.32C113.679 40.08 114.089 40.46 114.909 40.46H115.479V44H108.039V34.28C108.039 33.66 107.909 33.21 107.649 32.93C107.389 32.65 106.999 32.51 106.479 32.51C105.919 32.51 105.509 32.65 105.249 32.93C104.989 33.19 104.859 33.64 104.859 34.28V39.32C104.859 39.7 104.929 39.99 105.069 40.19C105.229 40.37 105.499 40.46 105.879 40.46H106.269V44H97.6895V40.46Z" fill="#76C33A"/>
<path d="M125.838 44.45C123.098 44.45 121.038 43.91 119.658 42.83C118.298 41.73 117.618 40.22 117.618 38.3V29.21C117.618 28.47 117.208 28.1 116.388 28.1H115.788V24.59H124.698V28.1H124.398C123.978 28.1 123.668 28.2 123.468 28.4C123.268 28.58 123.168 28.88 123.168 29.3V38.48C123.168 39.36 123.388 39.99 123.828 40.37C124.268 40.75 124.938 40.94 125.838 40.94C126.738 40.94 127.398 40.75 127.818 40.37C128.258 39.99 128.478 39.36 128.478 38.48V29.3C128.478 28.9 128.378 28.6 128.178 28.4C127.998 28.2 127.698 28.1 127.278 28.1H126.948V24.59H135.888V28.1H135.258C134.438 28.1 134.028 28.47 134.028 29.21V38.3C134.028 40.22 133.338 41.73 131.958 42.83C130.598 43.91 128.558 44.45 125.838 44.45ZM136.179 46.7H136.479C136.899 46.7 137.209 46.6 137.409 46.4C137.629 46.2 137.739 45.92 137.739 45.56V34.34C137.739 33.98 137.629 33.7 137.409 33.5C137.209 33.3 136.899 33.2 136.479 33.2H136.179V29.6H141.309L141.579 31.55C142.179 30.77 142.889 30.18 143.709 29.78C144.549 29.36 145.539 29.15 146.679 29.15C148.719 29.15 150.349 29.8 151.569 31.1C152.809 32.38 153.429 34.21 153.429 36.59C153.429 39.11 152.849 41.06 151.689 42.44C150.549 43.8 148.909 44.48 146.769 44.48C145.829 44.48 145.059 44.38 144.459 44.18C143.879 44 143.259 43.68 142.599 43.22V45.56C142.599 46.32 143.009 46.7 143.829 46.7H144.159V50.24H136.179V46.7ZM145.389 41.21C146.369 41.21 147.029 40.85 147.369 40.13C147.729 39.41 147.909 38.25 147.909 36.65C147.909 35.07 147.729 33.95 147.369 33.29C147.029 32.61 146.369 32.27 145.389 32.27C144.589 32.27 143.979 32.62 143.559 33.32C143.139 34.02 142.929 34.9 142.929 35.96V37.61C142.929 38.77 143.129 39.66 143.529 40.28C143.949 40.9 144.569 41.21 145.389 41.21Z" fill="#212121"/>
</svg>
