<svg width="160" height="65" viewBox="0 0 160 65" fill="none" xmlns="http://www.w3.org/2000/svg">
<path fill-rule="evenodd" clip-rule="evenodd" d="M23.4352 25.4486L20.9396 21.4743L23.4352 17.5001H28.3862L30.8818 21.4743L28.3862 25.4486H23.4352Z" fill="white"/>
<path fill-rule="evenodd" clip-rule="evenodd" d="M20.4163 29.7201H15.4654L12.9698 25.7458L15.4654 21.7715H20.4163L22.9119 25.7458L20.4163 29.7201Z" fill="white"/>
<path fill-rule="evenodd" clip-rule="evenodd" d="M7.45535 33.9544L5 29.9801L7.45535 26.0058H12.4465L14.9421 29.9801L12.4465 33.9544H7.45535Z" fill="white"/>
<path fill-rule="evenodd" clip-rule="evenodd" d="M7.45535 42.46L5 38.4858L7.45535 34.5115H12.4465L14.9421 38.4858L12.4465 42.46H7.45535Z" fill="white"/>
<path fill-rule="evenodd" clip-rule="evenodd" d="M5 46.9543L7.45535 42.98H12.4465L14.9421 46.9543L12.4465 50.9286H7.45535L5 46.9543Z" fill="white"/>
<path fill-rule="evenodd" clip-rule="evenodd" d="M20.4163 46.6944H15.4654L12.9698 42.7201L15.4654 38.7458H20.4163L22.9119 42.7201L20.4163 46.6944Z" fill="white"/>
<path fill-rule="evenodd" clip-rule="evenodd" d="M20.4163 38.1886H15.4654L12.9698 34.2143L15.4654 30.2401H20.4163L22.9119 34.2143L20.4163 38.1886Z" fill="white"/>
<path fill-rule="evenodd" clip-rule="evenodd" d="M20.9396 29.9801L23.4352 26.0058H28.3862L30.8818 29.9801L28.3862 33.9544H23.4352L20.9396 29.9801Z" fill="white"/>
<path fill-rule="evenodd" clip-rule="evenodd" d="M20.9396 38.4858L23.4352 34.5115H28.3862L30.8818 38.4858L28.3862 42.46H23.4352L20.9396 38.4858Z" fill="white"/>
<path fill-rule="evenodd" clip-rule="evenodd" d="M23.4352 25.4486L20.9396 21.4743L23.4352 17.5001H28.3862L30.8818 21.4743L28.3862 25.4486H23.4352Z" fill="white"/>
<path fill-rule="evenodd" clip-rule="evenodd" d="M20.4163 29.7201H15.4654L12.9698 25.7458L15.4654 21.7715H20.4163L22.9119 25.7458L20.4163 29.7201Z" fill="white"/>
<path fill-rule="evenodd" clip-rule="evenodd" d="M7.45535 33.9544L5 29.9801L7.45535 26.0058H12.4465L14.9421 29.9801L12.4465 33.9544H7.45535Z" fill="white"/>
<path fill-rule="evenodd" clip-rule="evenodd" d="M7.45535 42.46L5 38.4858L7.45535 34.5115H12.4465L14.9421 38.4858L12.4465 42.46H7.45535Z" fill="white"/>
<path fill-rule="evenodd" clip-rule="evenodd" d="M5 46.9543L7.45535 42.98H12.4465L14.9421 46.9543L12.4465 50.9286H7.45535L5 46.9543Z" fill="white"/>
<path fill-rule="evenodd" clip-rule="evenodd" d="M20.4163 46.6944H15.4654L12.9698 42.7201L15.4654 38.7458H20.4163L22.9119 42.7201L20.4163 46.6944Z" fill="white"/>
<path fill-rule="evenodd" clip-rule="evenodd" d="M20.4163 38.1886H15.4654L12.9698 34.2143L15.4654 30.2401H20.4163L22.9119 34.2143L20.4163 38.1886Z" fill="white"/>
<path fill-rule="evenodd" clip-rule="evenodd" d="M20.9396 29.9801L23.4352 26.0058H28.3862L30.8818 29.9801L28.3862 33.9544H23.4352L20.9396 29.9801Z" fill="white"/>
<path fill-rule="evenodd" clip-rule="evenodd" d="M20.9396 38.4858L23.4352 34.5115H28.3862L30.8818 38.4858L28.3862 42.46H23.4352L20.9396 38.4858Z" fill="white"/>
<path d="M45.9887 44.4801C43.7887 44.4801 41.9087 44.0601 40.3487 43.2201C38.8087 42.3601 37.6387 41.1801 36.8387 39.6801C36.0387 38.1601 35.6387 36.4201 35.6387 34.4601C35.6387 32.4601 36.0087 30.6901 36.7487 29.1501C37.4887 27.5901 38.6187 26.3701 40.1387 25.4901C41.6787 24.5901 43.5687 24.1401 45.8087 24.1401C47.4887 24.1401 48.8987 24.2901 50.0387 24.5901C51.1787 24.8901 52.2187 25.3801 53.1587 26.0601V30.2001H47.6087V27.9801C47.1087 27.7601 46.5087 27.6501 45.8087 27.6501C44.3287 27.6501 43.1787 28.2501 42.3587 29.4501C41.5387 30.6501 41.1287 32.3201 41.1287 34.4601C41.1287 36.5601 41.5587 38.1701 42.4187 39.2901C43.2987 40.4101 44.5787 40.9701 46.2587 40.9701C47.0187 40.9701 47.7287 40.8901 48.3887 40.7301V36.5601H44.9087V33.0801H53.9387V42.1701C51.8187 43.7101 49.1687 44.4801 45.9887 44.4801ZM54.8281 40.4601H55.1581C55.9781 40.4601 56.3881 40.0801 56.3881 39.3201V34.2801C56.3881 33.9201 56.2981 33.6401 56.1181 33.4401C55.9581 33.2401 55.6681 33.1401 55.2481 33.1401H54.8881V29.6001H61.0681L61.3981 31.0401C61.7381 30.5401 62.2281 30.1801 62.8681 29.9601C63.5281 29.7201 64.1681 29.6001 64.7881 29.6001H66.7381V33.1401H63.9181C63.2381 33.1401 62.7481 33.3001 62.4481 33.6201C62.1681 33.9401 62.0281 34.4401 62.0281 35.1201V39.3201C62.0281 39.7001 62.1081 39.9901 62.2681 40.1901C62.4481 40.3701 62.7381 40.4601 63.1381 40.4601H63.4381V44.0001H54.8281V40.4601ZM74.3002 44.4801C71.6802 44.4801 69.6402 43.8401 68.1802 42.5601C66.7202 41.2801 65.9902 39.3901 65.9902 36.8901C65.9902 34.2701 66.6702 32.3301 68.0302 31.0701C69.3902 29.7901 71.3402 29.1501 73.8802 29.1501C76.3602 29.1501 78.2402 29.8201 79.5202 31.1601C80.8202 32.4801 81.4702 34.2501 81.4702 36.4701V37.9101H71.5402C71.5402 39.1101 71.7502 39.9601 72.1702 40.4601C72.5902 40.9601 73.3302 41.2101 74.3902 41.2101C75.1302 41.2101 75.7902 41.0801 76.3702 40.8201V39.6201H80.9602V42.2901C80.1802 43.0101 79.2602 43.5601 78.2002 43.9401C77.1402 44.3001 75.8402 44.4801 74.3002 44.4801ZM75.9502 35.0301C75.9502 34.2101 75.7502 33.5801 75.3502 33.1401C74.9702 32.6801 74.4402 32.4501 73.7602 32.4501C73.0402 32.4501 72.4902 32.6801 72.1102 33.1401C71.7302 33.5801 71.5402 34.2101 71.5402 35.0301H75.9502ZM89.6225 44.4801C87.0025 44.4801 84.9625 43.8401 83.5025 42.5601C82.0425 41.2801 81.3125 39.3901 81.3125 36.8901C81.3125 34.2701 81.9925 32.3301 83.3525 31.0701C84.7125 29.7901 86.6625 29.1501 89.2025 29.1501C91.6825 29.1501 93.5625 29.8201 94.8425 31.1601C96.1425 32.4801 96.7925 34.2501 96.7925 36.4701V37.9101H86.8625C86.8625 39.1101 87.0725 39.9601 87.4925 40.4601C87.9125 40.9601 88.6525 41.2101 89.7125 41.2101C90.4525 41.2101 91.1125 41.0801 91.6925 40.8201V39.6201H96.2825V42.2901C95.5025 43.0101 94.5825 43.5601 93.5225 43.9401C92.4625 44.3001 91.1625 44.4801 89.6225 44.4801ZM91.2725 35.0301C91.2725 34.2101 91.0725 33.5801 90.6725 33.1401C90.2925 32.6801 89.7625 32.4501 89.0825 32.4501C88.3625 32.4501 87.8125 32.6801 87.4325 33.1401C87.0525 33.5801 86.8625 34.2101 86.8625 35.0301H91.2725ZM97.6895 40.4601H97.9895C98.8295 40.4601 99.2495 40.0801 99.2495 39.3201V34.3401C99.2495 33.5801 98.8595 33.2001 98.0795 33.2001H97.6895V29.6001H102.729L102.939 31.5201C104.239 29.9401 106.079 29.1501 108.459 29.1501C110.259 29.1501 111.579 29.5901 112.419 30.4701C113.259 31.3301 113.679 32.5901 113.679 34.2501V39.3201C113.679 40.0801 114.089 40.4601 114.909 40.4601H115.479V44.0001H108.039V34.2801C108.039 33.6601 107.909 33.2101 107.649 32.9301C107.389 32.6501 106.999 32.5101 106.479 32.5101C105.919 32.5101 105.509 32.6501 105.249 32.9301C104.989 33.1901 104.859 33.6401 104.859 34.2801V39.3201C104.859 39.7001 104.929 39.9901 105.069 40.1901C105.229 40.3701 105.499 40.4601 105.879 40.4601H106.269V44.0001H97.6895V40.4601ZM125.838 44.4501C123.098 44.4501 121.038 43.9101 119.658 42.8301C118.298 41.7301 117.618 40.2201 117.618 38.3001V29.2101C117.618 28.4701 117.208 28.1001 116.388 28.1001H115.788V24.5901H124.698V28.1001H124.398C123.978 28.1001 123.668 28.2001 123.468 28.4001C123.268 28.5801 123.168 28.8801 123.168 29.3001V38.4801C123.168 39.3601 123.388 39.9901 123.828 40.3701C124.268 40.7501 124.938 40.9401 125.838 40.9401C126.738 40.9401 127.398 40.7501 127.818 40.3701C128.258 39.9901 128.478 39.3601 128.478 38.4801V29.3001C128.478 28.9001 128.378 28.6001 128.178 28.4001C127.998 28.2001 127.698 28.1001 127.278 28.1001H126.948V24.5901H135.888V28.1001H135.258C134.438 28.1001 134.028 28.4701 134.028 29.2101V38.3001C134.028 40.2201 133.338 41.7301 131.958 42.8301C130.598 43.9101 128.558 44.4501 125.838 44.4501ZM136.179 46.7001H136.479C136.899 46.7001 137.209 46.6001 137.409 46.4001C137.629 46.2001 137.739 45.9201 137.739 45.5601V34.3401C137.739 33.9801 137.629 33.7001 137.409 33.5001C137.209 33.3001 136.899 33.2001 136.479 33.2001H136.179V29.6001H141.309L141.579 31.5501C142.179 30.7701 142.889 30.1801 143.709 29.7801C144.549 29.3601 145.539 29.1501 146.679 29.1501C148.719 29.1501 150.349 29.8001 151.569 31.1001C152.809 32.3801 153.429 34.2101 153.429 36.5901C153.429 39.1101 152.849 41.0601 151.689 42.4401C150.549 43.8001 148.909 44.4801 146.769 44.4801C145.829 44.4801 145.059 44.3801 144.459 44.1801C143.879 44.0001 143.259 43.6801 142.599 43.2201V45.5601C142.599 46.3201 143.009 46.7001 143.829 46.7001H144.159V50.2401H136.179V46.7001ZM145.389 41.2101C146.369 41.2101 147.029 40.8501 147.369 40.1301C147.729 39.4101 147.909 38.2501 147.909 36.6501C147.909 35.0701 147.729 33.9501 147.369 33.2901C147.029 32.6101 146.369 32.2701 145.389 32.2701C144.589 32.2701 143.979 32.6201 143.559 33.3201C143.139 34.0201 142.929 34.9001 142.929 35.9601V37.6101C142.929 38.7701 143.129 39.6601 143.529 40.2801C143.949 40.9001 144.569 41.2101 145.389 41.2101Z" fill="white"/>
</svg>
